<?xml version="1.0" encoding="UTF-8"?>
<!DOCTYPE svg PUBLIC "-//W3C//DTD SVG 1.1//EN" "http://www.w3.org/Graphics/SVG/1.1/DTD/svg11.dtd">
<!-- Creator: CorelDRAW 2020 (64-Bit) -->
<svg xmlns="http://www.w3.org/2000/svg" xml:space="preserve" width="6mm" height="6mm" version="1.1" style="shape-rendering:geometricPrecision; text-rendering:geometricPrecision; image-rendering:optimizeQuality; fill-rule:evenodd; clip-rule:evenodd"
viewBox="0 0 600 600"
 xmlns:xlink="http://www.w3.org/1999/xlink"
 xmlns:xodm="http://www.corel.com/coreldraw/odm/2003">
 <defs>
  <style type="text/css">
   <![CDATA[
    .fil0 {fill:black}
   ]]>
  </style>
 </defs>
 <g id="Слой_x0020_1">
  <metadata id="CorelCorpID_0Corel-Layer"/>
  <path class="fil0" d="M319.76 196.85l0 38.1 59.53 0c-0.43,19.41 -6.72,45.31 -7.14,64.29l-52.39 0 0 185.72 -76.19 0 0 -185.72 -35.71 0 0 -64.29 35.71 0c0,-47.43 -0.71,-119.04 71.44,-119.04l64.28 0 0 61.9c-30.17,0 -59.53,-6.09 -59.53,19.04zm-326.19 88.11c0,72.02 6.4,109.18 40.58,168.95 47,82.19 148.02,147.71 242.76,147.71 81.92,0 123.23,-10.4 190.5,-54.75 31.62,-20.84 65.25,-58.24 84.7,-91.49 52.14,-89.16 54.76,-188.53 13.63,-283.05 -11.52,-26.48 -39.56,-63.12 -59.65,-83.22 -49.89,-49.87 -125.48,-87.49 -195.85,-87.49 -61.91,0 -89.36,2.3 -145.54,28.26 -43.99,20.31 -88.3,57.22 -115.41,96.5l-27.01 44.42c-13.04,25.05 -28.71,76.34 -28.71,114.16z"/>
 </g>
</svg>
