<?xml version="1.0" encoding="UTF-8"?>
<!DOCTYPE svg PUBLIC "-//W3C//DTD SVG 1.1//EN" "http://www.w3.org/Graphics/SVG/1.1/DTD/svg11.dtd">
<!-- Creator: CorelDRAW 2020 (64-Bit) -->
<svg xmlns="http://www.w3.org/2000/svg" xml:space="preserve" width="30mm" height="19mm" version="1.1" style="shape-rendering:geometricPrecision; text-rendering:geometricPrecision; image-rendering:optimizeQuality; fill-rule:evenodd; clip-rule:evenodd"
viewBox="0 0 3000 1900"
 xmlns:xlink="http://www.w3.org/1999/xlink"
 xmlns:xodm="http://www.corel.com/coreldraw/odm/2003">
 <defs>
  <style type="text/css">
   <![CDATA[
    .fil0 {fill:#6EA2EF}
   ]]>
  </style>
 </defs>
 <g id="Слой_x0020_1">
  <metadata id="CorelCorpID_0Corel-Layer"/>
  <path class="fil0" d="M278.5 1845.29c162.08,0 233.1,-107.08 347.38,-221.35l861.18 -851.49c27.74,18.58 242.93,239.69 285.99,282.76 97.44,97.43 190.14,190.14 287.6,287.59 81.04,81.04 425.56,446.13 514.17,487.57 205.15,95.93 418.11,-71.59 418.11,-243.59 0,-146.74 -35.67,-181.08 -134.12,-279.53l-1124.54 -1124.54c-64.91,-64.91 -128.62,-127.64 -247.21,-127.64 -115.59,0 -180,60.42 -243.97,124.41 -132.98,132.98 -1174.96,1165.52 -1202.66,1208.01 -127.51,195.51 18.54,457.8 238.07,457.8z"/>
 </g>
</svg>
