<svg width="17" height="17" viewBox="0 0 17 17" fill="none" xmlns="http://www.w3.org/2000/svg">
<path d="M14.5808 0H2.4192C1.0462 0 0 1.0462 0 2.4192V14.5808C0 15.9538 1.0462 17 2.4192 17H14.5808C15.9538 17 17 15.9538 17 14.5808V2.4192C17 1.0462 15.9538 0 14.5808 0ZM8.5 13.6C11.3115 13.6 13.6 11.3769 13.6 8.6962C13.6 8.2385 13.5346 7.7154 13.4038 7.3231H14.8423V14.2538C14.8423 14.5808 14.5808 14.9077 14.1885 14.9077H2.8115C2.4846 14.9077 2.1577 14.6462 2.1577 14.2538V7.2577H3.6615C3.5308 7.7154 3.4654 8.1731 3.4654 8.6308C3.4 11.3769 5.6885 13.6 8.5 13.6ZM8.5 11.6385C6.6692 11.6385 5.2308 10.2 5.2308 8.4346C5.2308 6.6692 6.6692 5.2308 8.5 5.2308C10.3308 5.2308 11.7692 6.6692 11.7692 8.4346C11.7692 10.2654 10.3308 11.6385 8.5 11.6385ZM14.7769 4.6423C14.7769 5.0346 14.45 5.3615 14.0577 5.3615H12.2269C11.8346 5.3615 11.5077 5.0346 11.5077 4.6423V2.8769C11.5077 2.4846 11.8346 2.1577 12.2269 2.1577H14.0577C14.45 2.1577 14.7769 2.4846 14.7769 2.8769V4.6423Z" fill="black"/>
</svg>
