<svg width="21" height="21" viewBox="0 0 21 21" fill="none" xmlns="http://www.w3.org/2000/svg">
<path d="M20.3182 12.0682C20.3864 11.5227 20.4545 11.0455 20.4545 10.5C20.4545 5.0455 16.0227 0.54545 10.5 0.54545C9.9545 0.54545 9.4773 0.61364 8.9318 0.68182C8.0455 0.20455 7.0909 0 6.1364 0C2.7273 0 0 2.7273 0 6.1364C0 7.0909 0.2045 8.0455 0.6818 8.9318C0.6136 9.4773 0.5455 9.9545 0.5455 10.5C0.5455 15.9545 4.9773 20.4545 10.5 20.4545C11.0455 20.4545 11.5227 20.3864 12.0682 20.3182C12.9545 20.7273 13.9091 21 14.8636 21C18.2727 21 21 18.2727 21 14.8636C21 13.9091 20.7273 12.9545 20.3182 12.0682ZM14.6591 14.1136C14.4545 14.5227 14.1818 14.8636 13.7727 15.1364C13.3636 15.4091 12.9545 15.6136 12.4091 15.75C11.8636 15.8864 11.25 15.9545 10.5682 15.9545C9.1364 15.9545 7.9773 15.6136 7.1591 15C6.6818 14.5909 6.2727 14.1136 6.0682 13.5C5.7955 12.9545 6.2727 12.2727 6.9545 12.2727H7.1591C7.5682 12.2727 7.9773 12.5455 8.1136 12.8864C8.25 13.2273 8.4545 13.5 8.7273 13.7045C9.1364 14.0455 9.75 14.1818 10.5 14.1818C11.1818 14.1818 11.7273 14.0455 12.1364 13.8409C12.5455 13.6364 12.75 13.2273 12.75 12.8182C12.75 12.6136 12.6818 12.4773 12.6136 12.3409C12.5455 12.2045 12.3409 12.0682 12.2045 12C12 11.8636 11.7955 11.7955 11.4545 11.7273C11.1818 11.6591 10.8409 11.5227 10.4318 11.4545L10.0227 11.3182C9.5455 11.1818 9 11.0455 8.5909 10.9091C8.1136 10.7727 7.7045 10.5682 7.3636 10.3636C7.0227 10.1591 6.75 9.8864 6.5455 9.4773C6.3409 9.1364 6.2727 8.6591 6.2727 8.1136C6.2727 7.5682 6.4091 7.0909 6.6136 6.6818C6.8182 6.2727 7.1591 5.9318 7.5 5.7273C7.9091 5.4545 8.3182 5.25 8.8636 5.1818C9.3409 5.0455 9.8864 4.9773 10.5 4.9773C11.1818 4.9773 11.7273 5.0455 12.2727 5.1818C12.8182 5.3182 13.2273 5.5227 13.6364 5.8636C14.0455 6.1364 14.3182 6.4773 14.5227 6.9545C14.8636 7.5682 14.3864 8.3864 13.6364 8.3864H13.4318C13.0227 8.3864 12.6818 8.1818 12.4773 7.8409C12.3409 7.6364 12.2045 7.4318 12 7.2273C11.6591 6.9545 11.1136 6.8182 10.5 6.8182C9.8864 6.8182 9.4091 6.9545 9.0682 7.1591C8.7273 7.3636 8.5909 7.7045 8.5909 8.0455C8.5909 8.25 8.6591 8.3864 8.7273 8.5227C8.7955 8.6591 8.9318 8.7955 9.1364 8.8636C9.3409 8.9318 9.5455 9.0682 9.8182 9.1364C10.0909 9.2045 10.4318 9.2727 10.8409 9.4091C11.25 9.4773 11.5909 9.6136 12 9.6818C12.3409 9.75 12.6818 9.8864 13.0227 9.9545C13.3636 10.0909 13.6364 10.2273 13.9091 10.3636C14.1818 10.5 14.3864 10.7045 14.5909 10.9091C14.7955 11.1136 14.9318 11.3864 15 11.6591C15.1364 11.9318 15.1364 12.3409 15.1364 12.75C15 13.2273 14.8636 13.7045 14.6591 14.1136Z" fill="black"/>
</svg>
