<svg width="21" height="13" viewBox="0 0 21 13" fill="none" xmlns="http://www.w3.org/2000/svg">
<path d="M20.8061 11.1153C20.8061 11.0322 20.7231 11.0322 20.7231 10.9492C20.391 10.285 19.6438 9.4548 18.6475 8.5416C18.1494 8.1264 17.9003 7.7943 17.7343 7.6283C17.4852 7.2962 17.4852 7.0471 17.5683 6.715C17.6513 6.466 17.9834 6.0509 18.5645 5.3036C18.8966 4.8885 19.0626 4.6395 19.3117 4.3904C20.5571 2.7299 21.1382 1.6506 20.9722 1.1525L20.8892 1.0695C20.8061 0.986504 20.7231 0.903404 20.5571 0.903404C20.391 0.820404 20.142 0.820404 19.8929 0.903404H16.738C16.655 0.903404 16.655 0.903404 16.4889 0.903404C16.4059 0.903404 16.3229 0.903404 16.3229 0.903404H16.2399H16.1569L16.0738 0.986504C15.9908 1.0695 15.9908 1.0695 15.9908 1.1525C15.6587 2.0658 15.2436 2.813 14.8285 3.6432C14.5794 4.0583 14.3303 4.4734 14.0813 4.8055C13.8322 5.1376 13.6662 5.3867 13.5001 5.5527C13.3341 5.7188 13.168 5.8018 13.085 5.9678C13.002 6.0509 12.8359 6.1339 12.8359 6.0509C12.7529 6.0509 12.6699 6.0509 12.6699 5.9678C12.5869 5.8848 12.5038 5.8018 12.4208 5.7188C12.3378 5.6357 12.3378 5.4697 12.2548 5.3036C12.2548 5.1376 12.2548 4.9716 12.2548 4.8885C12.2548 4.8055 12.2548 4.5564 12.2548 4.3904C12.2548 4.1413 12.2548 3.9753 12.2548 3.8923C12.2548 3.6432 12.2548 3.3111 12.2548 2.979C12.2548 2.6469 12.2548 2.3978 12.2548 2.2318C12.2548 2.0658 12.2548 1.8167 12.2548 1.6506C12.2548 1.4016 12.2548 1.2355 12.2548 1.1525C12.2548 1.0695 12.1718 0.903404 12.1718 0.820404C12.0887 0.737404 12.0057 0.654403 11.9227 0.571303C11.8397 0.488303 11.6736 0.488304 11.5906 0.405304C11.1755 0.322304 10.6773 0.239304 10.0962 0.239304C8.7678 0.239304 7.8546 0.322304 7.5225 0.488304C7.3564 0.571404 7.1904 0.654404 7.1074 0.820404C6.9413 0.986504 6.9413 1.0695 7.0243 1.0695C7.4394 1.1525 7.7715 1.3185 7.9376 1.5676L8.0206 1.7337C8.1036 1.8167 8.1036 1.9827 8.1866 2.2318C8.2697 2.4809 8.2697 2.7299 8.2697 3.062C8.2697 3.5602 8.2697 4.0583 8.2697 4.3904C8.2697 4.8055 8.1866 5.0546 8.1866 5.3036C8.1866 5.5527 8.1036 5.7188 8.0206 5.8018C7.9376 5.9678 7.9376 6.0509 7.8546 6.0509C7.8546 6.0509 7.8546 6.1339 7.7715 6.1339C7.6885 6.1339 7.6055 6.2169 7.4394 6.2169C7.3564 6.2169 7.1904 6.1339 7.1074 6.0509C6.9413 5.9678 6.7753 5.8018 6.6922 5.6357C6.5262 5.4697 6.3601 5.2206 6.1941 4.8885C6.0281 4.5564 5.779 4.2244 5.6129 3.7262L5.4469 3.3941C5.3639 3.2281 5.1978 2.896 5.0318 2.4809C4.8657 2.0658 4.6997 1.7337 4.5336 1.3186C4.4506 1.1525 4.3676 1.0695 4.2846 0.986504H4.2016C4.2016 0.986504 4.1185 0.903404 4.0355 0.903404C3.9525 0.903404 3.8695 0.820404 3.7864 0.820404H0.797613C0.465523 0.820404 0.299473 0.903404 0.216453 0.986504L0.133423 1.0695C0.133423 1.0695 0.133423 1.1525 0.133423 1.2355C0.133423 1.3186 0.133433 1.4016 0.216453 1.5676C0.631573 2.5639 1.1297 3.5602 1.6278 4.5564C2.126 5.4697 2.6241 6.2999 2.9562 6.8811C3.3713 7.4623 3.7034 8.0434 4.1185 8.5416C4.5336 9.0397 4.7827 9.3718 4.8657 9.5378C5.0318 9.7039 5.1148 9.7869 5.1978 9.8699L5.4469 10.119C5.6129 10.285 5.862 10.5341 6.1941 10.7832C6.5262 11.0322 6.9413 11.2813 7.3564 11.5304C7.7715 11.7794 8.2697 11.9455 8.7678 12.1115C9.349 12.2776 9.8471 12.3606 10.3452 12.2776H11.5906C11.8397 12.2776 12.0057 12.1946 12.1718 12.0285L12.2548 11.9455C12.2548 11.8625 12.3378 11.8625 12.3378 11.7794C12.3378 11.6964 12.3378 11.6134 12.3378 11.4474C12.3378 11.1153 12.3378 10.8662 12.4208 10.6171C12.5038 10.3681 12.5039 10.202 12.5869 10.036C12.6699 9.8699 12.7529 9.7869 12.8359 9.7039C12.919 9.6208 13.002 9.5378 13.002 9.5378H13.085C13.251 9.4548 13.5001 9.5378 13.6662 9.7039C13.9152 9.8699 14.1643 10.119 14.3303 10.3681C14.4964 10.6171 14.7455 10.8662 15.0776 11.1983C15.4097 11.5304 15.6587 11.7794 15.8248 11.8625L16.0738 12.0285C16.2399 12.1115 16.4059 12.1946 16.655 12.2776C16.9041 12.3606 17.0701 12.3606 17.2361 12.3606L20.0589 12.2776C20.308 12.2776 20.5571 12.1946 20.7231 12.1115C20.8892 12.0285 20.9722 11.9455 20.9722 11.7794C20.9722 11.6964 20.9722 11.5304 20.9722 11.4474C20.8061 11.2813 20.8061 11.1983 20.8061 11.1153Z" fill="black"/>
</svg>
