<svg width="221" height="221" viewBox="0 0 221 221" fill="none" xmlns="http://www.w3.org/2000/svg">
<path fill-rule="evenodd" clip-rule="evenodd" d="M16.591 168.764C15.2437 166.597 13.9693 164.38 12.7712 162.116L162.116 12.7712C164.38 13.9693 166.597 15.2437 168.764 16.591L16.591 168.764ZM154.08 8.92586C156.495 9.96334 158.865 11.0844 161.188 12.2854L12.2854 161.188C11.0844 158.865 9.96334 156.495 8.92586 154.08L154.08 8.92586ZM0.333643 101.849C0.650467 97.7578 1.1901 93.729 1.94043 89.7748L89.7748 1.94043C93.729 1.1901 97.7579 0.650467 101.849 0.333643L0.333643 101.849ZM73.4796 6.35398C78.1847 4.68136 83.0367 3.31856 88.011 2.2901L2.2901 88.011C3.31856 83.0367 4.68136 78.1847 6.35398 73.4796L73.4796 6.35398ZM27.3053 183.227C28.9316 185.086 30.6191 186.89 32.3647 188.635L188.635 32.3647C186.89 30.6191 185.086 28.9316 183.227 27.3053L27.3053 183.227ZM182.47 26.6486C180.588 25.0319 178.651 23.4775 176.662 21.9886L21.9886 176.662C23.4775 178.651 25.0319 180.588 26.6486 182.47L182.47 26.6486ZM1.11348 126.247C1.53947 129.233 2.0848 132.18 2.7445 135.084L135.084 2.7445C132.18 2.0848 129.233 1.53947 126.247 1.11348L1.11348 126.247ZM125.003 0.943211C121.833 0.527685 118.621 0.246489 115.373 0.105529L0.105529 115.373C0.246489 118.621 0.527685 121.833 0.943211 125.003L125.003 0.943211ZM153.087 8.50491C150.594 7.46306 148.056 6.5099 145.475 5.64937L5.64937 145.475C6.5099 148.056 7.46306 150.594 8.50491 153.087L153.087 8.50491ZM7.17665 71.2427C18.3716 41.7945 41.7945 18.3716 71.2427 7.17665L7.17665 71.2427ZM175.85 21.3864C173.829 19.9016 171.755 18.4839 169.632 17.1366L17.1366 169.632C18.4839 171.755 19.9016 173.829 21.3864 175.85L175.85 21.3864ZM114.01 0.0546825C112.844 0.0183175 111.674 0 110.5 0C108.105 0 105.728 0.0761947 103.371 0.226292L0.226292 103.371C0.0761947 105.728 0 108.105 0 110.5C0 111.674 0.0183175 112.844 0.0546824 114.01L114.01 0.0546825ZM144.409 5.30029C141.727 4.43614 138.999 3.67179 136.231 3.01159L3.01159 136.231C3.67179 138.999 4.43614 141.727 5.30029 144.409L144.409 5.30029ZM87.0743 218.512C90.0069 219.145 92.9828 219.662 95.997 220.057L220.057 95.997C219.662 92.9828 219.145 90.0069 218.512 87.0743L87.0743 218.512ZM110.5 221C109.788 221 109.078 220.993 108.37 220.98L220.98 108.37C220.993 109.078 221 109.788 221 110.5C221 113.411 220.887 116.296 220.666 119.151L119.151 220.666C116.296 220.887 113.411 221 110.5 221ZM120.695 220.536C124.865 220.154 128.967 219.542 132.989 218.71L218.71 132.989C219.542 128.967 220.154 124.865 220.536 120.695L120.695 220.536ZM97.2538 220.214C100.459 220.597 103.707 220.843 106.99 220.945L220.945 106.99C220.843 103.707 220.597 100.459 220.214 97.2538L97.2538 220.214ZM218.321 134.792L134.792 218.321C139.924 217.17 144.922 215.661 149.757 213.823L213.823 149.757C215.661 144.922 217.17 139.924 218.321 134.792ZM212.907 152.088L152.088 212.907C179.667 201.695 201.695 179.667 212.907 152.088ZM52.2361 204.409C50.097 203.079 48.0067 201.678 45.9684 200.209L200.209 45.9684C201.678 48.0067 203.079 50.097 204.409 52.2361L52.2361 204.409ZM53.1116 204.948L204.948 53.1116C206.278 55.2965 207.535 57.5313 208.715 59.8124L59.8124 208.715C57.5313 207.535 55.2965 206.278 53.1116 204.948ZM39.2943 195.002C41.1925 196.603 43.1454 198.141 45.1498 199.614L199.614 45.1498C198.141 43.1454 196.603 41.1925 195.002 39.2942L39.2943 195.002ZM33.075 189.339C34.8368 191.07 36.6563 192.741 38.5303 194.351L194.351 38.5303C192.741 36.6562 191.07 34.8368 189.339 33.075L33.075 189.339ZM60.7482 209.193L209.193 60.7482C210.376 63.0901 211.478 65.4797 212.495 67.9135L67.9135 212.495C65.4797 211.478 63.0901 210.376 60.7482 209.193ZM218.256 85.9166C217.621 83.1243 216.881 80.3723 216.04 77.6649L77.6649 216.04C80.3723 216.881 83.1243 217.621 85.9166 218.256L218.256 85.9166ZM76.5906 215.7L215.7 76.5906C214.862 73.9886 213.93 71.4287 212.908 68.9149L68.9149 212.908C71.4287 213.93 73.9886 214.862 76.5906 215.7Z" fill="url(#paint0_linear_53_3)" fill-opacity="0.5"/>
<defs>
<linearGradient id="paint0_linear_53_3" x1="36.1636" y1="29.6341" x2="181.823" y2="195.384" gradientUnits="userSpaceOnUse">
<stop stop-color="#ED7B50"/>
<stop offset="0.494792" stop-color="#488AEA"/>
<stop offset="1" stop-color="#383838"/>
</linearGradient>
</defs>
</svg>
